<svg width="18" height="18" fill="none" xmlns="http://www.w3.org/2000/svg"><path d="M14.67 10.422V7.488a5.696 5.696 0 0 0-3.744-5.328v-.054c0-.919-.756-1.674-1.674-1.674H8.73c-.918 0-1.674.755-1.674 1.674v.054C4.86 2.988 3.33 5.11 3.33 7.488v2.916l-1.206 1.62a1.575 1.575 0 0 0-.144 1.656c.27.54.81.882 1.422.882h2.771c0 .035-.018.09-.018.125A2.85 2.85 0 0 0 9 17.532a2.85 2.85 0 0 0 2.844-2.845c0-.054 0-.09-.018-.125h2.772a1.58 1.58 0 0 0 1.421-.882c.27-.54.216-1.17-.144-1.656l-1.204-1.602zM7.812 3.15a.594.594 0 0 0 .431-.558v-.486c0-.27.216-.504.505-.504h.521c.27 0 .504.216.504.504v.486c0 .27.18.486.432.558A4.509 4.509 0 0 1 13.5 7.488v2.25h-9v-2.25c0-2.016 1.368-3.798 3.312-4.338zm2.88 11.556A1.69 1.69 0 0 1 9 16.398a1.69 1.69 0 0 1-1.692-1.692c0-.054.019-.09.019-.126h3.348c0 .036.017.072.017.126zm4.284-1.53a.413.413 0 0 1-.379.234H3.402a.413.413 0 0 1-.379-.234.385.385 0 0 1 .036-.432l1.332-1.764c.018-.018.018-.036.018-.054h9.18c.019.018.019.036.036.054l1.332 1.764a.41.41 0 0 1 .019.432zM4.248 1.188a.578.578 0 0 0-.828-.054A8.536 8.536 0 0 0 .666 5.886c-.054.324.144.63.45.684.036 0 .072.018.108.018.27 0 .522-.198.576-.468a7.18 7.18 0 0 1 2.376-4.104.578.578 0 0 0 .072-.828zM14.58 1.116a.593.593 0 0 0-.828.054.593.593 0 0 0 .054.828c1.224 1.044 2.07 2.52 2.394 4.122.054.27.306.468.576.468.036 0 .072 0 .108-.018.324-.054.522-.36.468-.684a8.657 8.657 0 0 0-2.772-4.77z" fill="#357F83"/></svg>