<svg xmlns="http://www.w3.org/2000/svg" xmlns:xlink="http://www.w3.org/1999/xlink" viewBox="0 0 45 45"><path fill-rule="evenodd" clip-rule="evenodd" fill="#F0B023" d="M28.7 29v5.8c0 1.8-1.4 3.2-3.2 3.2h-9.6-.1l-5.5 4.2c-.1 0-.1.1-.2.1s-.3-.1-.3-.3v-3.7c0-.1-.1-.3-.3-.3H7.9c-1.8 0-3.2-1.4-3.2-3.2V22.3c0-1.9 1.5-3.4 3.4-3.4h6.2v-6.8c0-2.1 1.7-3.8 3.8-3.8h21c2.1 0 3.8 1.7 3.8 3.8v13.1c0 2.1-1.7 3.8-3.8 3.8h-2.2v5.4L29.7 29h-1"/><defs><path id="chat-icon-a" d="M1.3 2.3h39.1v39.1H1.3z"/></defs><clipPath id="chat-icon-b"><use xlink:href="#chat-icon-a" overflow="visible"/></clipPath><g clip-path="url(#chat-icon-b)"><path fill-rule="evenodd" clip-rule="evenodd" fill="#2C2C2C" d="M23.8 31.4v-4h2v4c0 1.8-1.5 3.3-3.3 3.3h-9.8-.1L6.9 39c-.1 0-.1.1-.2.1s-.3-.1-.3-.3V35c0-.1-.1-.3-.3-.3H4.6c-1.8 0-3.3-1.5-3.3-3.3V20.2c0-1.8 1.5-3.3 3.3-3.3h4.7v2H4.6c-.7 0-1.3.6-1.3 1.3v11.2c0 .7.6 1.3 1.3 1.3H6.3c1.2.1 2 1.1 2 2.2v.5l3-2.2c.3-.2.7-.4 1.1-.4h10c.8 0 1.4-.6 1.4-1.4zM36.4 4.3c2.1 0 3.9 1.7 3.9 3.9v13.4c0 2.1-1.7 3.9-3.9 3.9h-2.2V31l-7.3-5.5H15c-2.1 0-3.9-1.7-3.9-3.9V8.2c0-2.1 1.7-3.9 3.9-3.9h21.4zm1.9 17.3V8.2c0-1.1-.9-1.9-1.9-1.9H15c-1.1 0-1.9.9-1.9 1.9v13.4c0 1.1.9 1.9 1.9 1.9h12.5l4.7 3.5v-3.5h4.2c1.1 0 1.9-.8 1.9-1.9zm-17-8.2c.8 0 1.5.7 1.5 1.5s-.7 1.5-1.5 1.5-1.5-.7-1.5-1.5.7-1.5 1.5-1.5zm8.8 0c.8 0 1.5.7 1.5 1.5s-.7 1.5-1.5 1.5-1.5-.7-1.5-1.5.7-1.5 1.5-1.5zm-4.4 0c.8 0 1.5.7 1.5 1.5s-.7 1.5-1.5 1.5-1.5-.7-1.5-1.5.7-1.5 1.5-1.5z"/></g></svg>