<svg xmlns="http://www.w3.org/2000/svg" viewBox="0 0 60 60"><g fill-rule="evenodd" clip-rule="evenodd" fill="#E6B246"><path d="M52.3 45.8zM54.4 32.3c-.1-.2-.1-.4 0-.6l1.8-3.3c.7-1.3.3-2.9-.8-3.7l-3.1-2.2c-.2-.1-.3-.3-.3-.5l.2-3.8c.1-1.5-.9-2.7-2.4-3l-3.7-.6c-.2 0-.4-.2-.5-.4l-1.4-3.5c-.6-1.3-2-2.1-3.4-1.7l-3.6 1.1c-.2.1-.4 0-.6-.1l-2.8-2.5c-1.1-1-2.7-1-3.8 0L27.2 10c-.2.1-.4.2-.6.1l-3.6-1c-1.4-.4-2.9.3-3.4 1.7l-1.4 3.5c-.1.2-.3.3-.5.4l-3.7.5c-1.4.2-2.5 1.5-2.4 3l.2 3.8c0 .2-.1.4-.3.5l-3.1 2.2c-1.2.8-1.6 2.4-.8 3.7l1.8 3.3c.1.2.1.4 0 .6l-1.8 3.3c-.7 1.3-.3 2.9.8 3.7l3.1 2.2c.2.1.3.3.3.5l-.2 3.8c-.1 1.5.9 2.7 2.4 3l3.7.6c.2 0 .4.2.5.4l1.4 3.5c.5 1.3 2 2.1 3.4 1.6l3.6-1.1c.2-.1.4 0 .6.1l2.8 2.5c1.1 1 2.7 1 3.8 0l2.8-2.5c.2-.1.4-.2.6-.1l3.6 1.1c1.4.4 2.9-.3 3.4-1.6l1.4-3.5c.1-.2.3-.3.5-.4l3.7-.6c1.4-.2 2.5-1.5 2.4-3l-.1-3.8c0-.2.1-.4.3-.5l3.1-2.2c1.2-.8 1.6-2.4.8-3.7l-1.9-3.3zM11.6 18.2z"/></g><circle fill="#FFF" cx="21.1" cy="21.1" r="4.2"/><circle fill="#FFF" cx="34.9" cy="34.9" r="4.2"/><path fill="#2C2C2C" d="M40 16c.4.4.4 1.1 0 1.6L17.6 40c-.4.4-1.2.4-1.6 0-.4-.4-.4-1.1 0-1.6L38.5 16c.2-.2.5-.3.8-.3.2 0 .5.1.7.3zm.4 18.9c0 3-2.4 5.4-5.4 5.4-1.4 0-2.8-.6-3.8-1.6-2.1-2.1-2.1-5.6 0-7.7s5.6-2.1 7.7 0c.9 1.1 1.5 2.5 1.5 3.9zm-2.3 0c0-1.8-1.4-3.2-3.2-3.2-.8 0-1.7.3-2.3.9-.9.9-1.2 2.3-.7 3.5.5 1.2 1.7 2 2.9 2 1.9 0 3.3-1.4 3.3-3.2zM15.7 21.1c0-3 2.4-5.4 5.4-5.4 1.4 0 2.8.6 3.8 1.6 2.1 2.1 2.1 5.6 0 7.7-1 1-2.4 1.6-3.8 1.6-3 0-5.4-2.5-5.4-5.5zm2.2 0c0 1.8 1.4 3.2 3.2 3.2.8 0 1.7-.3 2.3-.9.9-.9 1.2-2.3.7-3.5-.5-1.2-1.7-2-2.9-2-1.8.1-3.2 1.5-3.3 3.2zm32.6 6.6c-.1.2-.1.4 0 .6l1.8 3.3c.7 1.3.3 2.9-.8 3.7l-3.1 2.2c-.2.1-.3.3-.3.5l.2 3.8c.1 1.5-.9 2.7-2.4 3l-3.7.6c-.2 0-.4.2-.5.4l-1.4 3.5c-.6 1.3-2 2.1-3.4 1.7l-3.6-1.1c-.2-.1-.4 0-.6.1l-2.8 2.5c-1.1 1-2.7 1-3.8 0L23.3 50c-.2-.1-.4-.2-.6-.1L19.1 51c-1.4.4-2.9-.3-3.4-1.6l-1.4-3.5c-.1-.2-.3-.3-.5-.4l-3.7-.6c-1.4-.2-2.5-1.5-2.4-3l.2-3.8c0-.2-.1-.4-.3-.5l-3.1-2.2c-1.2-.8-1.6-2.4-.8-3.7l1.8-3.3c.1-.2.1-.4 0-.6l-1.8-3.3c-.7-1.3-.3-2.9.8-3.7l3.1-2.2c.2-.1.3-.3.3-.5l-.2-3.8c-.1-1.5.9-2.7 2.4-3l3.7-.6c.2 0 .4-.2.5-.4l1.4-3.5c.6-1.3 2-2.1 3.4-1.7l3.6 1.1c.2.1.4 0 .6-.1l2.8-2.5c1.1-1 2.7-1 3.8 0l2.8 2.5c.2.1.4.2.6.1L37 5.1c1.4-.4 2.9.3 3.4 1.7l1.4 3.5c.1.2.3.3.5.4l3.7.6c1.4.2 2.5 1.5 2.4 3l-.2 3.7c0 .2.1.4.3.5l3.1 2.2c1.2.8 1.6 2.4.8 3.7l-1.9 3.3zm-.3-5.1l-3.1-2.2c-.8-.6-1.3-1.5-1.2-2.5l.2-3.8c0-.3-.2-.6-.5-.6l-3.7-.6c-1-.2-1.8-.8-2.2-1.7l-1.4-3.5c-.1-.3-.4-.4-.7-.3l-3.6 1c-.9.3-2 0-2.7-.6l-2.8-2.5c-.2-.2-.6-.2-.8 0l-2.8 2.5c-.7.7-1.8.9-2.7.6l-3.6-1.1c-.3-.1-.6.1-.7.3l-1.4 3.5c-.4.9-1.2 1.6-2.2 1.7l-3.7.6c-.3.1-.5.3-.5.6l.2 3.8c.1 1-.4 1.9-1.2 2.5L6 22.5c-.3.2-.3.5-.2.8l1.8 3.3c.5.9.5 1.9 0 2.8l-1.8 3.3c-.2.3-.1.6.2.8l3 2.2c.8.6 1.3 1.5 1.2 2.5L9.9 42c0 .3.2.6.5.6l3.7.6c1 .2 1.8.8 2.2 1.7l1.4 3.5c.1.3.4.4.7.3l3.6-1.1c.9-.3 2 0 2.7.6l2.8 2.5c.2.2.6.2.8 0l2.8-2.5c.7-.7 1.8-.9 2.7-.6l3.6 1.1c.3.1.6-.1.7-.3l1.4-3.5c.4-.9 1.2-1.6 2.2-1.7l3.7-.6c.3 0 .5-.3.5-.6l-.2-3.8c-.1-1 .4-1.9 1.2-2.5l3.1-2.2c.3-.2.3-.5.2-.8l-1.8-3.3c-.5-.9-.5-1.9 0-2.8l1.8-3.3c.3-.2.3-.6 0-.7z"/></svg>