<svg width="111" height="31" fill="none" xmlns="http://www.w3.org/2000/svg"><path d="M4.83 6.75a3 3 0 013-3h99.999a2.998 2.998 0 013 3v19a5.002 5.002 0 01-5 5h-98a3 3 0 01-3-3v-21h.001z" fill="#E6B246"/><path d="M102.427 1.25H6A3.75 3.75 0 002.25 5v17.625A3.75 3.75 0 006 26.375h96.427a3.75 3.75 0 003.75-3.75V5a3.75 3.75 0 00-3.75-3.75z" stroke="#2C2C2C" stroke-width="1.5"/><path d="M15.39 18h1.594v-7.678H15.61v5.533h-.033l-.792-1.595-2.31-3.938H10.88V18h1.375v-5.533h.033l.792 1.595L15.39 18zm5.584.132c1.65 0 2.673-1.166 2.673-3.014 0-1.837-1.023-2.992-2.673-2.992-1.639 0-2.662 1.155-2.662 2.992 0 1.848 1.023 3.014 2.662 3.014zm0-1.133c-.726 0-1.188-.473-1.188-1.342V14.59c0-.858.462-1.331 1.188-1.331.737 0 1.2.473 1.2 1.331v1.067c0 .869-.463 1.342-1.2 1.342zm9.59 1.133c1.375 0 2.288-.671 2.838-1.815l-1.177-.693c-.253.693-.792 1.221-1.66 1.221-1.079 0-1.772-.748-1.772-2.068v-1.21c0-1.309.693-2.09 1.771-2.09.858 0 1.342.462 1.562 1.144l1.243-.66c-.539-1.188-1.43-1.771-2.805-1.771-2.024 0-3.31 1.441-3.31 4.026s1.286 3.916 3.31 3.916zM36.72 18v-1.122h-.76V9.86h-1.407v6.754c0 .88.45 1.386 1.408 1.386h.759zm3.343.132c1.65 0 2.673-1.166 2.673-3.014 0-1.837-1.023-2.992-2.673-2.992-1.639 0-2.662 1.155-2.662 2.992 0 1.848 1.023 3.014 2.662 3.014zm0-1.133c-.726 0-1.188-.473-1.188-1.342V14.59c0-.858.462-1.331 1.188-1.331.737 0 1.2.473 1.2 1.331v1.067c0 .869-.463 1.342-1.2 1.342zm5.802 1.133c1.43 0 2.365-.77 2.365-1.881 0-.957-.605-1.518-1.859-1.694l-.583-.077c-.539-.088-.748-.264-.748-.649 0-.352.264-.594.87-.594.56 0 1.044.264 1.374.616l.825-.825c-.55-.572-1.122-.902-2.244-.902-1.309 0-2.178.704-2.178 1.815 0 1.045.682 1.584 1.914 1.738l.572.077c.506.066.704.275.704.605 0 .407-.286.66-.957.66-.649 0-1.155-.297-1.573-.781l-.858.836c.572.66 1.287 1.056 2.376 1.056zm4.313-6.71c.572 0 .825-.297.825-.704v-.22c0-.407-.253-.704-.825-.704-.583 0-.825.297-.825.704v.22c0 .407.242.704.825.704zM49.474 18h1.408v-5.742h-1.408V18zm4.448 0v-3.795c0-.616.56-.924 1.144-.924.67 0 .946.418.946 1.232V18h1.408v-3.63c0-1.43-.66-2.244-1.837-2.244-.891 0-1.375.473-1.606 1.089h-.055v-.957h-1.408V18h1.408zm10.24.484c0-1.034-.606-1.639-2.014-1.639h-1.54c-.505 0-.747-.143-.747-.429 0-.253.187-.418.407-.517.252.066.55.099.88.099 1.562 0 2.375-.77 2.375-1.925 0-.704-.296-1.265-.89-1.595v-.154h1.22v-1.078h-.89c-.528 0-.814.275-.814.836v.187a3.201 3.201 0 00-1.002-.143c-1.55 0-2.375.781-2.375 1.947 0 .759.352 1.353 1.044 1.672v.044c-.55.121-1.056.418-1.056 1.012 0 .462.265.836.738.957v.121c-.639.099-1.023.462-1.023 1.1 0 .847.736 1.353 2.672 1.353 2.2 0 3.015-.649 3.015-1.848zm-1.32.165c0 .484-.407.715-1.32.715h-.704c-.88 0-1.21-.264-1.21-.704 0-.231.088-.44.297-.594h1.957c.715 0 .98.22.98.583zm-1.694-3.608c-.672 0-1.035-.308-1.035-.88v-.187c0-.583.364-.88 1.035-.88.67 0 1.033.297 1.033.88v.187c0 .572-.362.88-1.033.88zm9.495 3.091c1.375 0 2.288-.671 2.838-1.815l-1.177-.693c-.253.693-.792 1.221-1.66 1.221-1.079 0-1.772-.748-1.772-2.068v-1.21c0-1.309.693-2.09 1.771-2.09.858 0 1.342.462 1.562 1.144l1.243-.66c-.539-1.188-1.43-1.771-2.805-1.771-2.024 0-3.31 1.441-3.31 4.026s1.286 3.916 3.31 3.916zm6.266 0c1.65 0 2.673-1.166 2.673-3.014 0-1.837-1.023-2.992-2.673-2.992-1.64 0-2.662 1.155-2.662 2.992 0 1.848 1.023 3.014 2.662 3.014zm0-1.133c-.726 0-1.188-.473-1.188-1.342V14.59c0-.858.462-1.331 1.188-1.331.737 0 1.199.473 1.199 1.331v1.067c0 .869-.462 1.342-1.2 1.342h.001zm5.802 1.133c1.43 0 2.365-.77 2.365-1.881 0-.957-.605-1.518-1.859-1.694l-.583-.077c-.539-.088-.748-.264-.748-.649 0-.352.264-.594.87-.594.56 0 1.044.264 1.374.616l.825-.825c-.55-.572-1.122-.902-2.244-.902-1.309 0-2.178.704-2.178 1.815 0 1.045.682 1.584 1.914 1.738l.572.077c.506.066.704.275.704.605 0 .407-.286.66-.957.66-.649 0-1.155-.297-1.573-.781l-.858.836c.572.66 1.287 1.056 2.376 1.056zM88.026 18h1.012v-1.122H87.95V13.38h1.177v-1.122H87.95v-1.573h-1.265v.979c0 .396-.132.594-.55.594h-.44v1.122h.847v3.157c0 .935.517 1.463 1.485 1.463h-.001zm4.203.132c1.43 0 2.365-.77 2.365-1.881 0-.957-.605-1.518-1.86-1.694l-.582-.077c-.54-.088-.748-.264-.748-.649 0-.352.264-.594.869-.594.56 0 1.045.264 1.375.616l.825-.825c-.55-.572-1.122-.902-2.244-.902-1.31 0-2.178.704-2.178 1.815 0 1.045.682 1.584 1.914 1.738l.572.077c.506.066.704.275.704.605 0 .407-.286.66-.957.66-.65 0-1.155-.297-1.573-.781l-.858.836c.572.66 1.287 1.056 2.376 1.056zM99.566 12.935h-2.419c.085-.351.397-.657 1.203-1.027.774-.357 1.17-.676 1.17-1.41 0-.872-.611-1.307-1.69-1.307-.721 0-1.365.266-1.846.754l.585.682c.319-.305.754-.546 1.293-.546.547 0 .748.228.748.462 0 .195-.123.377-.513.546-1.112.487-2.067 1.163-2.093 2.723h3.561v-.877z" fill="#2C2C2C"/></svg>