<svg width="17" height="17" fill="none" xmlns="http://www.w3.org/2000/svg"><g clip-path="url(#clip0)" fill="#383838"><path d="M.245 6.58l7.969-5.313a.49.49 0 0 1 .572 0l4.455 2.983V3.106a.54.54 0 0 1 .531-.531h.695a.54.54 0 0 1 .53.53v2.29l1.758 1.185c.245.163.327.49.163.735l-.408.573a.53.53 0 0 1-.695.163L8.501 3.147 1.186 8.05c-.245.123-.572.082-.694-.163l-.409-.573a.533.533 0 0 1 .163-.735H.245z"/><path fill-rule="evenodd" clip-rule="evenodd" d="M14.467 7.928v7.396c0 .286-.245.49-.532.49h-3.187a.472.472 0 0 1-.49-.49v-3.882a.54.54 0 0 0-.531-.531H7.275a.54.54 0 0 0-.531.53v3.883c0 .286-.245.49-.532.49H3.025a.472.472 0 0 1-.49-.49V7.928L8.5 3.964l5.967 3.964h-.001z"/></g><defs><clipPath id="clip0"><path fill="#fff" d="M0 0h17v17H0z"/></clipPath></defs></svg>