<svg width="20" height="20" fill="none" xmlns="http://www.w3.org/2000/svg"><path fill-rule="evenodd" clip-rule="evenodd" d="M3.734 1.2a.4.4 0 0 0-.343.256l-.775 1.375a.4.4 0 0 0-.05.194v1.681h-.97a.4.4 0 0 0-.4.4V6.3a.4.4 0 0 0 .4.4h.97v11.7a.4.4 0 0 0 .4.4h1.606a.4.4 0 0 0 .4-.4V6.7H8.2v2.725h-.9a.4.4 0 0 0-.4.4V15.1a.4.4 0 0 0 .4.4h8.75a.4.4 0 0 0 .4-.4V9.825a.4.4 0 0 0-.4-.4h-1.056V6.7h1.984c.054 0 .107-.01.156-.031l1.37-.575a.4.4 0 0 0 .3-.394.4.4 0 0 0-.3-.388l-1.37-.575a.396.396 0 0 0-.156-.03H4.972V3.024a.4.4 0 0 0-.05-.194l-.775-1.375a.4.4 0 0 0-.35-.256h-.031a.21.21 0 0 0-.032 0zM9 6.7h5.194v2.725H9V6.7z" fill="#fff"/></svg>