<svg xmlns="http://www.w3.org/2000/svg" viewBox="0 0 17 17"><path fill-rule="evenodd" clip-rule="evenodd" fill="#383838" d="M14.9 8.5c0 .3 0 .6-.1.8l1.8 1.4c.2.1.2.4.1.5l-1.7 3c-.1.2-.3.3-.5.2l-2.1-.9c-.4.3-.9.6-1.4.8l-.3 2.3c0 .2-.2.4-.4.4H6.8c-.2 0-.4-.2-.4-.4l-.3-2.3c-.5-.2-1-.5-1.4-.8l-2.1.9c-.2.1-.4 0-.5-.2L.4 11.3c-.1-.2-.1-.4.1-.5l1.8-1.4c0-.3-.1-.6-.1-.8 0-.3 0-.6.1-.8L.4 6.3c-.2-.2-.2-.4-.1-.6L2 2.8c.1-.2.3-.3.5-.2l2.1.9c.4-.3.9-.6 1.4-.8L6.3.4c.1-.2.3-.4.5-.4h3.4c.2 0 .4.2.4.4l.3 2.3c.5.2 1 .5 1.4.8l2.1-.9c.2-.1.4 0 .5.2l1.7 2.9c.1.2.1.4-.1.5l-1.8 1.4c.2.3.2.6.2.9zm-9.4 0c0 1.6 1.3 3 3 3 1.6 0 3-1.3 3-3 0-1.6-1.3-3-3-3-1.6 0-3 1.4-3 3z"/></svg>