<svg xmlns="http://www.w3.org/2000/svg" xmlns:xlink="http://www.w3.org/1999/xlink" viewBox="0 0 17 17"><defs><path id="a" d="M0 0h17v17H0z"/></defs><clipPath id="b"><use xlink:href="#a" overflow="visible"/></clipPath><g clip-path="url(#b)" fill="#383838"><path d="M.2 6.6l8-5.3c.2-.1.4-.1.6 0l4.5 3V3.1c0-.3.2-.5.5-.5h.7c.3 0 .5.2.5.5v2.3l1.8 1.2c.2.2.3.5.2.7l-.4.6c-.2.2-.5.3-.7.2l-7.4-5-7.3 5c-.3.1-.6 0-.7-.2l-.4-.6c-.2-.2-.1-.6.1-.7z"/><path fill-rule="evenodd" clip-rule="evenodd" d="M14.5 7.9v7.4c0 .3-.2.5-.5.5h-3.2c-.3 0-.5-.2-.5-.5v-3.9c0-.3-.2-.5-.5-.5H7.3c-.3 0-.5.2-.5.5v3.9c0 .3-.2.5-.5.5H3c-.3 0-.5-.2-.5-.5V7.9l6-4 6 4z"/></g></svg>