<svg width="27" height="27" fill="none" xmlns="http://www.w3.org/2000/svg"><path d="M13.5.468C6.366.468.562 6.314.562 13.5S6.366 26.532 13.5 26.532a12.9 12.9 0 0 0 3.638-.522.846.846 0 0 0 .571-1.049.848.848 0 0 0-1.048-.571 11.16 11.16 0 0 1-3.16.454C7.295 24.844 2.25 19.756 2.25 13.5c0-6.255 5.046-11.344 11.25-11.344S24.75 7.245 24.75 13.5c0 2.88-1.207 5.704-3.317 7.878l-1.508-1.509c.302-.328.978-1.099 1.208-1.57a.845.845 0 0 0-.155-.96l-3.67-3.748a.845.845 0 0 0-.603-.254h-.002a.85.85 0 0 0-.603.255l-.524.538-2.692-2.75.553-.568a.843.843 0 0 0-.002-1.178l-3.67-3.749a.846.846 0 0 0-.986-.162c-.55.28-1.52 1.208-1.675 1.367-1.7 1.736-1.774 4.487-.163 6.133l6.8 6.948a3.988 3.988 0 0 0 2.878 1.193c.673 0 1.333-.18 1.94-.482.004.004.005.01.009.014l2.266 2.268c.035.035.08.052.12.08.047.033.091.072.143.095.047.021.098.025.149.037.056.013.108.03.165.033.007 0 .013.004.02.004.043 0 .085-.018.128-.025.057-.009.114-.012.169-.033.048-.02.09-.053.136-.081.044-.028.093-.044.133-.08.01-.008.018-.017.026-.026.001 0 .002 0 .003-.002l.002-.003c2.804-2.551 4.41-6.07 4.41-9.663C26.438 6.314 20.634.468 13.5.468zm1.45 18.525l-6.802-6.947c-.972-.995-.9-2.687.164-3.773.183-.188.49-.464.757-.687l2.585 2.641-.553.568a.843.843 0 0 0 .003 1.178l3.871 3.956a.847.847 0 0 0 1.208-.001l.524-.54 2.579 2.635c-.222.28-.504.608-.695.802-1.005 1.026-2.722 1.104-3.642.168z" fill="#fff"/></svg>