<svg xmlns="http://www.w3.org/2000/svg" viewBox="0 0 27 27"><path fill="#FFF" d="M13.5.5C6.4.5.6 6.3.6 13.5s5.8 13 12.9 13c1.2 0 2.5-.2 3.6-.5.4-.1.7-.6.6-1-.1-.4-.6-.7-1-.6-1 .3-2.1.5-3.2.5-6.2 0-11.3-5.1-11.3-11.3 0-6.3 5-11.3 11.2-11.3s11.2 5.1 11.2 11.3c0 2.9-1.2 5.7-3.3 7.9L19.8 20c.3-.3 1-1.1 1.2-1.6.2-.3.1-.7-.2-1l-3.7-3.7c-.2-.2-.4-.3-.6-.3-.2 0-.4.1-.6.3l-.5.5-2.7-2.8.6-.6c.3-.3.3-.9 0-1.2L9.8 5.9c-.3-.3-.7-.3-1-.2-.6.3-1.5 1.2-1.7 1.4-1.7 1.7-1.8 4.5-.2 6.1l6.8 6.9c.8.8 1.8 1.2 2.9 1.2.7 0 1.3-.2 1.9-.5l2.3 2.3.1.1.1.1H21.6l.1-.1s.1 0 .1-.1c2.8-2.6 4.4-6.1 4.4-9.7C26.4 6.3 20.6.5 13.5.5zM14.9 19l-6.8-7c-1-1-.9-2.7.2-3.8.2-.2.5-.5.8-.7l2.6 2.6-.6.6c-.3.3-.3.9 0 1.2l3.9 4c.3.3.9.3 1.2 0l.5-.5 2.6 2.6c-.2.3-.5.6-.7.8-1 1.1-2.7 1.1-3.7.2z"/></svg>