<svg width="22" height="22" fill="none" xmlns="http://www.w3.org/2000/svg"><path d="M4.566 11c0-3.21 2.367-5.872 5.446-6.35v1.4l3.959-2.475L10.01 1.1v1.547c-4.176.495-7.426 4.048-7.426 8.352 0 3.025 1.609 5.673 4.008 7.155l1.942-1.211a6.447 6.447 0 0 1-3.968-5.944zM15.407 3.845l-1.94 1.213A6.436 6.436 0 0 1 17.435 11c0 3.212-2.366 5.872-5.446 6.352v-1.402l-3.96 2.476L11.99 20.9v-1.55c4.176-.492 7.426-4.046 7.426-8.35 0-3.025-1.608-5.673-4.008-7.155z" fill="#434343"/><path d="M11.478 15.328v-1.081c1.22-.213 1.888-1.019 1.888-1.962 0-.956-.51-1.539-1.77-1.985-.904-.339-1.275-.562-1.275-.911 0-.298.223-.594.913-.594.763 0 1.25.243 1.527.36l.307-1.198c-.35-.17-.827-.317-1.537-.349v-.934h-1.04V7.68c-1.134.223-1.792.955-1.792 1.887 0 1.029.775 1.561 1.91 1.942.785.266 1.123.519 1.123.924 0 .423-.412.656-1.016.656-.69 0-1.316-.223-1.761-.467l-.318 1.241c.401.234 1.092.425 1.802.457v1.007h1.039z" fill="#434343"/></svg>